<svg width="16" height="16" viewBox="0 0 16 16" fill="none" xmlns="http://www.w3.org/2000/svg">
<path d="M7.04542 2.75C6.19587 2.75 5.36539 3.00192 4.65902 3.47391C3.95264 3.9459 3.40208 4.61675 3.07697 5.40164C2.75186 6.18653 2.6668 7.05019 2.83254 7.88343C2.99828 8.71666 3.40738 9.48203 4.0081 10.0828C4.60883 10.6835 5.3742 11.0926 6.20743 11.2583C7.04066 11.4241 7.90432 11.339 8.68921 11.0139C9.4741 10.6888 10.1449 10.1382 10.6169 9.43184C11.0889 8.72546 11.3408 7.89498 11.3408 7.04543C11.3408 5.90623 10.8882 4.81372 10.0827 4.00818C9.27713 3.20265 8.18462 2.75007 7.04542 2.75V2.75Z" stroke="#0984E3" stroke-width="0.8" stroke-miterlimit="10"/>
<path d="M10.2501 10.2501L13.25 13.25" stroke="#0984E3" stroke-width="0.8" stroke-miterlimit="10" stroke-linecap="round"/>
<path d="M6.45066 8.36365C6.21018 8.42823 5.9746 8.45887 5.74393 8.45559C5.51615 8.45152 5.31733 8.41639 5.14746 8.35018L5.20124 7.76729C5.36298 7.82636 5.53814 7.86008 5.7267 7.86847C5.91816 7.87607 6.1095 7.8542 6.30073 7.80284C6.50934 7.74682 6.65003 7.67487 6.7228 7.58699C6.79769 7.49543 6.82197 7.40038 6.79562 7.30185C6.77315 7.2178 6.72346 7.1597 6.64654 7.12755C6.56963 7.09539 6.44685 7.08333 6.27819 7.09134L5.7592 7.11889C5.18061 7.15001 4.83087 6.93952 4.71 6.4874C4.65808 6.29322 4.66491 6.10967 4.73047 5.93675C4.79526 5.76093 4.90952 5.60754 5.07325 5.4766C5.23988 5.34487 5.44634 5.24594 5.69261 5.17981C5.90412 5.12301 6.11072 5.10014 6.31242 5.11121C6.51412 5.12227 6.69054 5.16653 6.84167 5.24399L6.7786 5.7921C6.49065 5.66752 6.17719 5.65074 5.8382 5.74178C5.65566 5.7908 5.52338 5.86515 5.44134 5.96484C5.36143 6.06085 5.33658 6.16537 5.3668 6.2784C5.38927 6.36245 5.4379 6.42239 5.5127 6.45821C5.58749 6.49404 5.70448 6.50767 5.86366 6.49909L6.38266 6.47154C6.97728 6.44232 7.33194 6.64218 7.44661 7.07111C7.49775 7.26239 7.49054 7.44449 7.42498 7.61742C7.36154 7.78666 7.24651 7.93714 7.07987 8.06887C6.91537 8.19692 6.70563 8.29518 6.45066 8.36365Z" fill="#0984E3"/>
<path d="M7.24179 8.57061L6.42239 5.50576L7.09602 5.32486L7.76316 7.82022L9.17997 7.43974L9.33222 8.00924L7.24179 8.57061Z" fill="#0984E3"/>
</svg>
