<svg width="16" height="16" viewBox="0 0 16 16" fill="none" xmlns="http://www.w3.org/2000/svg">
<path d="M6.545 2.75C5.79442 2.75 5.0607 2.97257 4.43661 3.38957C3.81253 3.80657 3.32611 4.39927 3.03888 5.09272C2.75164 5.78617 2.67649 6.54922 2.82292 7.28538C2.96935 8.02153 3.33079 8.69774 3.86153 9.22848C4.39227 9.75922 5.06848 10.1207 5.80463 10.2671C6.54079 10.4135 7.30384 10.3384 7.99728 10.0511C8.69073 9.7639 9.28343 9.27748 9.70043 8.6534C10.1174 8.02931 10.34 7.29559 10.34 6.54501C10.3399 5.53853 9.94009 4.57329 9.2284 3.8616C8.51671 3.14991 7.55148 2.75006 6.545 2.75V2.75Z" fill="#A7DCE1"/>
<path d="M6.545 2.75C5.79442 2.75 5.0607 2.97257 4.43661 3.38957C3.81253 3.80657 3.32611 4.39927 3.03888 5.09272C2.75164 5.78617 2.67649 6.54922 2.82292 7.28538C2.96935 8.02153 3.33079 8.69774 3.86153 9.22848C4.39227 9.75922 5.06848 10.1207 5.80463 10.2671C6.54079 10.4135 7.30384 10.3384 7.99728 10.0511C8.69073 9.7639 9.28343 9.27748 9.70043 8.6534C10.1174 8.02931 10.34 7.29559 10.34 6.54501C10.3399 5.53853 9.94009 4.57329 9.2284 3.8616C8.51671 3.14991 7.55148 2.75006 6.545 2.75V2.75Z" fill="url(#paint0_diamond_102_2)"/>
<path d="M6.545 2.75C5.79442 2.75 5.0607 2.97257 4.43661 3.38957C3.81253 3.80657 3.32611 4.39927 3.03888 5.09272C2.75164 5.78617 2.67649 6.54922 2.82292 7.28538C2.96935 8.02153 3.33079 8.69774 3.86153 9.22848C4.39227 9.75922 5.06848 10.1207 5.80463 10.2671C6.54079 10.4135 7.30384 10.3384 7.99728 10.0511C8.69073 9.7639 9.28343 9.27748 9.70043 8.6534C10.1174 8.02931 10.34 7.29559 10.34 6.54501C10.3399 5.53853 9.94009 4.57329 9.2284 3.8616C8.51671 3.14991 7.55148 2.75006 6.545 2.75V2.75Z" fill="url(#paint1_diamond_102_2)"/>
<path d="M6.545 2.75C5.79442 2.75 5.0607 2.97257 4.43661 3.38957C3.81253 3.80657 3.32611 4.39927 3.03888 5.09272C2.75164 5.78617 2.67649 6.54922 2.82292 7.28538C2.96935 8.02153 3.33079 8.69774 3.86153 9.22848C4.39227 9.75922 5.06848 10.1207 5.80463 10.2671C6.54079 10.4135 7.30384 10.3384 7.99728 10.0511C8.69073 9.7639 9.28343 9.27748 9.70043 8.6534C10.1174 8.02931 10.34 7.29559 10.34 6.54501C10.3399 5.53853 9.94009 4.57329 9.2284 3.8616C8.51671 3.14991 7.55148 2.75006 6.545 2.75V2.75Z" fill="url(#paint2_diamond_102_2)"/>
<path d="M6.545 2.75C5.79442 2.75 5.0607 2.97257 4.43661 3.38957C3.81253 3.80657 3.32611 4.39927 3.03888 5.09272C2.75164 5.78617 2.67649 6.54922 2.82292 7.28538C2.96935 8.02153 3.33079 8.69774 3.86153 9.22848C4.39227 9.75922 5.06848 10.1207 5.80463 10.2671C6.54079 10.4135 7.30384 10.3384 7.99728 10.0511C8.69073 9.7639 9.28343 9.27748 9.70043 8.6534C10.1174 8.02931 10.34 7.29559 10.34 6.54501C10.3399 5.53853 9.94009 4.57329 9.2284 3.8616C8.51671 3.14991 7.55148 2.75006 6.545 2.75V2.75Z" fill="url(#paint3_diamond_102_2)"/>
<path d="M6.545 2.75C5.79442 2.75 5.0607 2.97257 4.43661 3.38957C3.81253 3.80657 3.32611 4.39927 3.03888 5.09272C2.75164 5.78617 2.67649 6.54922 2.82292 7.28538C2.96935 8.02153 3.33079 8.69774 3.86153 9.22848C4.39227 9.75922 5.06848 10.1207 5.80463 10.2671C6.54079 10.4135 7.30384 10.3384 7.99728 10.0511C8.69073 9.7639 9.28343 9.27748 9.70043 8.6534C10.1174 8.02931 10.34 7.29559 10.34 6.54501C10.3399 5.53853 9.94009 4.57329 9.2284 3.8616C8.51671 3.14991 7.55148 2.75006 6.545 2.75V2.75Z" fill="url(#paint4_radial_102_2)"/>
<path d="M6.545 2.75C5.79442 2.75 5.0607 2.97257 4.43661 3.38957C3.81253 3.80657 3.32611 4.39927 3.03888 5.09272C2.75164 5.78617 2.67649 6.54922 2.82292 7.28538C2.96935 8.02153 3.33079 8.69774 3.86153 9.22848C4.39227 9.75922 5.06848 10.1207 5.80463 10.2671C6.54079 10.4135 7.30384 10.3384 7.99728 10.0511C8.69073 9.7639 9.28343 9.27748 9.70043 8.6534C10.1174 8.02931 10.34 7.29559 10.34 6.54501C10.3399 5.53853 9.94009 4.57329 9.2284 3.8616C8.51671 3.14991 7.55148 2.75006 6.545 2.75V2.75Z" fill="url(#paint5_radial_102_2)"/>
<path d="M6.545 2.75C5.79442 2.75 5.0607 2.97257 4.43661 3.38957C3.81253 3.80657 3.32611 4.39927 3.03888 5.09272C2.75164 5.78617 2.67649 6.54922 2.82292 7.28538C2.96935 8.02153 3.33079 8.69774 3.86153 9.22848C4.39227 9.75922 5.06848 10.1207 5.80463 10.2671C6.54079 10.4135 7.30384 10.3384 7.99728 10.0511C8.69073 9.7639 9.28343 9.27748 9.70043 8.6534C10.1174 8.02931 10.34 7.29559 10.34 6.54501C10.3399 5.53853 9.94009 4.57329 9.2284 3.8616C8.51671 3.14991 7.55148 2.75006 6.545 2.75V2.75Z" fill="url(#paint6_diamond_102_2)"/>
<path d="M6.545 2.75C5.79442 2.75 5.0607 2.97257 4.43661 3.38957C3.81253 3.80657 3.32611 4.39927 3.03888 5.09272C2.75164 5.78617 2.67649 6.54922 2.82292 7.28538C2.96935 8.02153 3.33079 8.69774 3.86153 9.22848C4.39227 9.75922 5.06848 10.1207 5.80463 10.2671C6.54079 10.4135 7.30384 10.3384 7.99728 10.0511C8.69073 9.7639 9.28343 9.27748 9.70043 8.6534C10.1174 8.02931 10.34 7.29559 10.34 6.54501C10.3399 5.53853 9.94009 4.57329 9.2284 3.8616C8.51671 3.14991 7.55148 2.75006 6.545 2.75V2.75Z" stroke="#0984E3" stroke-width="0.8" stroke-miterlimit="10"/>
<rect x="12.889" y="13.5962" width="5.76242" height="1" rx="0.5" transform="rotate(-135 12.889 13.5962)" fill="#0984E3"/>
<defs>
<radialGradient id="paint0_diamond_102_2" cx="0" cy="0" r="1" gradientUnits="userSpaceOnUse" gradientTransform="translate(4 8.5) rotate(-45) scale(4.24264 4.24263)">
<stop offset="0.855969" stop-color="#C7D5D7"/>
<stop offset="1" stop-color="#D9D9D9" stop-opacity="0"/>
</radialGradient>
<radialGradient id="paint1_diamond_102_2" cx="0" cy="0" r="1" gradientUnits="userSpaceOnUse" gradientTransform="translate(8.5 3) rotate(90) scale(4 3.99999)">
<stop offset="0.426015" stop-color="#C7D5D7"/>
<stop offset="1" stop-color="#D9D9D9" stop-opacity="0"/>
</radialGradient>
<radialGradient id="paint2_diamond_102_2" cx="0" cy="0" r="1" gradientUnits="userSpaceOnUse" gradientTransform="translate(5.5 3) rotate(71.5651) scale(6.32456 6.32454)">
<stop offset="0.807394" stop-color="#A7DCE1"/>
<stop offset="1" stop-color="#D9D9D9" stop-opacity="0"/>
</radialGradient>
<radialGradient id="paint3_diamond_102_2" cx="0" cy="0" r="1" gradientUnits="userSpaceOnUse" gradientTransform="translate(7 10.5) rotate(-71.5651) scale(4.74342 4.74341)">
<stop offset="0.602347" stop-color="#A7DCE1"/>
<stop offset="1" stop-color="#D9D9D9" stop-opacity="0"/>
</radialGradient>
<radialGradient id="paint4_radial_102_2" cx="0" cy="0" r="1" gradientUnits="userSpaceOnUse" gradientTransform="translate(10.5 5.5) rotate(149.036) scale(2.91548 2.91547)">
<stop stop-color="white"/>
<stop offset="1" stop-color="#D9D9D9" stop-opacity="0"/>
</radialGradient>
<radialGradient id="paint5_radial_102_2" cx="0" cy="0" r="1" gradientUnits="userSpaceOnUse" gradientTransform="translate(3 5.5) rotate(24.444) scale(6.04152 6.04151)">
<stop offset="0.467364" stop-color="white"/>
<stop offset="1" stop-color="#D9D9D9" stop-opacity="0"/>
</radialGradient>
<radialGradient id="paint6_diamond_102_2" cx="0" cy="0" r="1" gradientUnits="userSpaceOnUse" gradientTransform="translate(6.5 6.5) rotate(144.462) scale(4.30116 4.30115)">
<stop stop-color="#A7DCE1" stop-opacity="0.81"/>
<stop offset="1" stop-color="#D9D9D9" stop-opacity="0"/>
</radialGradient>
</defs>
</svg>
