<svg width="16" height="16" viewBox="0 0 16 16" fill="none" xmlns="http://www.w3.org/2000/svg">
<circle cx="8" cy="8" r="7" fill="#0984E3"/>
<circle cx="8" cy="8" r="5.7" stroke="white" stroke-width="0.6"/>
<circle cx="8" cy="8" r="5" fill="white"/>
<path d="M9.45835 8.83335H9.12918L9.01252 8.72085C9.51252 8.13752 9.77085 7.34168 9.62918 6.49585C9.43335 5.33752 8.46668 4.41252 7.30002 4.27085C5.53752 4.05418 4.05418 5.53752 4.27085 7.30002C4.41252 8.46668 5.33752 9.43335 6.49585 9.62918C7.34168 9.77085 8.13752 9.51252 8.72085 9.01252L8.83335 9.12918V9.45835L10.6042 11.2292C10.775 11.4 11.0542 11.4 11.225 11.2292C11.3959 11.0584 11.3959 10.7792 11.225 10.6084L9.45835 8.83335ZM6.95835 8.83335C5.92085 8.83335 5.08335 7.99585 5.08335 6.95835C5.08335 5.92085 5.92085 5.08335 6.95835 5.08335C7.99585 5.08335 8.83335 5.92085 8.83335 6.95835C8.83335 7.99585 7.99585 8.83335 6.95835 8.83335Z" fill="#0984E3"/>
<path d="M6.64447 7.71053C6.53758 7.73917 6.43285 7.75274 6.3303 7.75123C6.22904 7.74938 6.14064 7.73372 6.06511 7.70427L6.08889 7.44529C6.16081 7.47157 6.23869 7.48659 6.32252 7.49036C6.40764 7.49378 6.4927 7.4841 6.5777 7.46132C6.67043 7.43648 6.73296 7.40454 6.76529 7.3655C6.79857 7.32484 6.80934 7.28261 6.79761 7.23882C6.7876 7.20148 6.76549 7.17565 6.73129 7.16135C6.69709 7.14705 6.6425 7.14166 6.56753 7.14518L6.33681 7.15731C6.07959 7.17102 5.92406 7.07741 5.87023 6.8765C5.84711 6.79021 5.8501 6.70866 5.87921 6.63184C5.90798 6.55373 5.95874 6.48561 6.0315 6.42746C6.10556 6.36897 6.19732 6.32505 6.30679 6.29572C6.40081 6.27053 6.49265 6.26041 6.58232 6.26537C6.672 6.27033 6.75043 6.29004 6.81764 6.32448L6.78972 6.56801C6.66168 6.51259 6.52232 6.50507 6.37163 6.54545C6.29049 6.56719 6.2317 6.6002 6.19525 6.64447C6.15974 6.68712 6.14872 6.73355 6.16218 6.78378C6.17219 6.82113 6.19382 6.84777 6.22708 6.86371C6.26033 6.87964 6.31235 6.88572 6.38311 6.88194L6.61384 6.86981C6.87818 6.85696 7.03589 6.94583 7.08697 7.13644C7.10974 7.22145 7.10658 7.30236 7.07747 7.37917C7.0493 7.45436 6.99819 7.5212 6.92414 7.57969C6.85103 7.63655 6.75781 7.68016 6.64447 7.71053Z" fill="#0984E3"/>
<path d="M7.21704 7.80229L6.85211 6.44033L7.15154 6.3601L7.44867 7.46898L8.07845 7.30023L8.14626 7.5533L7.21704 7.80229Z" fill="#0984E3"/>
</svg>
