<svg width="16" height="16" viewBox="0 0 16 16" fill="none" xmlns="http://www.w3.org/2000/svg">
<circle cx="8" cy="8" r="7" fill="#0984E3"/>
<circle cx="8" cy="8" r="5.7" stroke="white" stroke-width="0.6"/>
<circle cx="8" cy="8" r="5" fill="white"/>
<path d="M7.45453 5C6.96907 5 6.49451 5.14396 6.09087 5.41366C5.68722 5.68337 5.37262 6.06672 5.18684 6.51522C5.00106 6.96373 4.95246 7.45725 5.04716 7.93339C5.14187 8.40952 5.37564 8.84687 5.71892 9.19015C6.06219 9.53342 6.49954 9.76719 6.97567 9.8619C7.4518 9.95661 7.94533 9.908 8.39383 9.72222C8.84234 9.53644 9.22568 9.22184 9.49539 8.8182C9.7651 8.41455 9.90905 7.93999 9.90905 7.45453C9.90901 6.80356 9.6504 6.17927 9.19009 5.71896C8.72979 5.25866 8.1055 5.00004 7.45453 5V5Z" stroke="#0984E3" stroke-width="0.6" stroke-miterlimit="10"/>
<path d="M9.28577 9.28577L11 11" stroke="#0984E3" stroke-width="0.6" stroke-miterlimit="10" stroke-linecap="round"/>
<path d="M7.12106 8.38507C6.98713 8.41971 6.85578 8.4356 6.72701 8.43275C6.59986 8.42949 6.48872 8.40918 6.39361 8.37181L6.42093 8.04976C6.51148 8.08314 6.6094 8.10257 6.71469 8.10805C6.82159 8.11311 6.92829 8.10187 7.03479 8.07433C7.15096 8.04428 7.22916 8.00513 7.26937 7.95686C7.31075 7.90657 7.32386 7.85413 7.3087 7.79952C7.29577 7.75295 7.26777 7.72061 7.22469 7.70249C7.18161 7.68437 7.11302 7.67714 7.01893 7.68082L6.72937 7.69374C6.40657 7.70837 6.21039 7.59042 6.14084 7.3399C6.11097 7.2323 6.11393 7.13084 6.14972 7.03552C6.18507 6.9386 6.24814 6.8543 6.33893 6.78263C6.43133 6.71054 6.5461 6.65676 6.68326 6.62129C6.80105 6.59083 6.91626 6.57911 7.02889 6.58613C7.14153 6.59315 7.2402 6.61841 7.32491 6.66191L7.29224 6.96469C7.13094 6.89452 6.9559 6.88384 6.76711 6.93267C6.66545 6.95895 6.59196 6.99948 6.54663 7.05423C6.50247 7.10696 6.48909 7.16464 6.50647 7.22727C6.5194 7.27384 6.54682 7.3072 6.58874 7.32734C6.63065 7.34749 6.69601 7.35554 6.78482 7.35151L7.07437 7.33859C7.40613 7.32509 7.60501 7.43718 7.67099 7.67485C7.70042 7.78084 7.69724 7.8815 7.66144 7.97682C7.62681 8.07011 7.5633 8.1528 7.4709 8.22489C7.37967 8.29496 7.26305 8.34835 7.12106 8.38507Z" fill="#0984E3"/>
<path d="M7.79881 8.49522L7.32732 6.79695L7.70248 6.69994L8.08636 8.08264L8.8754 7.87859L8.96302 8.19415L7.79881 8.49522Z" fill="#0984E3"/>
</svg>
